<?xml version="1.0" encoding="UTF-8"?>
<svg id="Layer_1" data-name="Layer 1" xmlns="http://www.w3.org/2000/svg" viewBox="0 0 2000 2000">
  <defs>
    <style>
      .cls-1 {
        fill: #16bbb2;
      }

      .cls-2 {
        fill: #0b3a56;
      }
    </style>
  </defs>
  <path class="cls-2" d="M1135.3,1644.93h-65.1v-113.95l13.08-9.79c.73-.54,84.53-64.83,84.53-136.63v-130.24h65.1v130.24c0,83.85-68.24,152.47-97.62,178.06v82.31Z"/>
  <path class="cls-2" d="M581.94,1644.93v-520.86c0-79.06,28.54-110.96,75.66-154.19l164.4-131.66,40.66,50.87-162.76,130.24c-41.85,38.48-52.86,54.09-52.86,104.73v520.86h-65.1Z"/>
  <path class="cls-2" d="M581.89,1775.14h553.37v-97.62h-553.37v97.62ZM1200.37,1840.25h-683.58v-227.86h683.58v227.86Z"/>
  <path class="cls-1" d="M1428.27,1286.85h-423.2v-65.1h423.2c17.94,0,32.51-14.57,32.51-32.51V375.38c0-17.98-14.57-32.55-32.51-32.55h-520.82c-17.94,0-32.55,14.57-32.55,32.55v743.4h-65.1V375.38c0-53.86,43.84-97.69,97.65-97.69h520.82c53.82,0,97.65,43.84,97.65,97.69v813.86c0,53.78-43.84,97.62-97.65,97.62"/>
  <rect class="cls-1" x="1302.45" y="505.27" width="55.94" height="748.91"/>
  <path class="cls-2" d="M874.88,1482.17v-65.1c44.56,0,97.65-16.95,97.65-97.65v-111.12l89.89-89.89c33.2-43.22,14.84-106.07-12.81-130.78-13.01-11.59-17.67-7.08-21.5-3.29l-260.45,260.45-46.02-46.09,260.45-260.37c31.63-31.63,75.2-31.21,110.93.77,54.09,48.39,75.24,151.24,19.16,221.28l-2.37,2.68-72.18,72.14v84.23c0,120.03-84.07,162.76-162.76,162.76"/>
  <path class="cls-2" d="M1072.64,1723.25c0,.28,0,.54-.02.82-.29,9.17-5.51,17.1-13.1,21.22-1.23.68-2.52,1.25-3.87,1.71-2.54.86-5.26,1.33-8.09,1.33-13.85,0-25.09-11.24-25.09-25.09,0-2.52.37-4.96,1.07-7.27.41-1.35.93-2.64,1.54-3.88,3.99-8.03,12.15-13.62,21.65-13.92.28,0,.54-.02.82-.02,13.85,0,25.09,11.24,25.09,25.09"/>
</svg>