<?xml version="1.0" encoding="UTF-8"?>
<svg id="Layer_1" data-name="Layer 1" xmlns="http://www.w3.org/2000/svg" viewBox="0 0 2000 2000">
  <defs>
    <style>
      .cls-1 {
        isolation: isolate;
      }

      .cls-2 {
        fill: #16bbb2;
      }

      .cls-3 {
        fill: #0b3a56;
      }
    </style>
  </defs>
  <path class="cls-3" d="M897.76,1842.68c-22.29,0-43.35-5.02-59.51-14.22l-357.23-206.79c-17.49-10.06-27.13-23.94-27.13-39.09l.15-211.14c0-4.34,3.51-7.84,7.84-7.84s7.84,3.52,7.84,7.84l-.15,211.14c0,9.3,6.85,18.35,19.27,25.51l357.2,206.77c12.24,6.95,28.68,11.21,45.96,11.99l.15-232.35c0-4.34,3.51-7.84,7.84-7.84s7.84,3.52,7.84,7.84l-.15,240.32c0,4.29-3.45,7.78-7.72,7.84-.74.02-1.47.02-2.21.02Z"/>
  <path class="cls-3" d="M899.85,1842.66c-2.05,0-4.03-.81-5.5-2.25-1.5-1.47-2.34-3.49-2.34-5.59l.15-240.32c0-4.34,3.51-7.84,7.84-7.84s7.84,3.52,7.84,7.84l-.15,232.09c15.75-1.23,30.18-5.3,41.24-11.73l582.26-338.97c12.16-6.94,18.89-15.87,19.01-25.18l.15-226.24c0-4.34,3.51-7.84,7.84-7.84s7.84,3.52,7.84,7.84l-.15,226.35c-.2,15.2-9.74,28.89-26.85,38.66l-582.21,338.94c-15.2,8.84-35.39,13.89-56.83,14.25h-.14Z"/>
  <g>
    <path class="cls-2" d="M862.54,1453.91c13.96,8.07,36.56,8.07,50.43,0,13.87-8.07,13.79-21.19-.16-29.26-13.96-8.07-36.57-8.07-50.44,0-13.87,8.07-13.79,21.19.17,29.26"/>
    <path class="cls-2" d="M486.89,1236.67c13.96,8.07,36.57,8.07,50.43,0,13.87-8.07,13.79-21.19-.17-29.26-13.96-8.07-36.56-8.07-50.43,0-13.87,8.07-13.79,21.19.16,29.26"/>
    <path class="cls-2" d="M1482.94,1092.79c13.96,8.07,36.56,8.07,50.43,0,13.87-8.07,13.79-21.19-.16-29.26-13.96-8.07-36.57-8.07-50.44,0-13.87,8.07-13.79,21.19.17,29.26"/>
  </g>
  <path class="cls-3" d="M884.97,1603.14c-24.74,0-47.96-5.58-65.64-15.82l-397.33-229.79c-19.09-11.08-29.6-26.27-29.6-42.77l.14-91.38c0-4.32,3.52-7.83,7.84-7.83s7.84,3.51,7.84,7.84c0,10.63,7.78,21.02,21.91,29.21l397.33,229.78c15.58,8.99,37.3,14.11,60.02,13.6,1.61-.03,4.12.78,5.64,2.25,1.49,1.49,2.33,3.49,2.33,5.61l-.14,91.45c0,4.27-3.45,7.75-7.72,7.83-.87.02-1.75.02-2.62.02ZM408.18,1255.88l-.09,58.88c0,10.66,7.74,21.03,21.77,29.18l397.33,229.79c14.09,8.15,32.49,12.9,52.45,13.62l.11-75.77c-22.69-.75-43.8-6.2-60.13-15.64l-397.35-229.78c-5.39-3.12-10.11-6.59-14.09-10.29Z"/>
  <g>
    <g class="cls-1">
      <path class="cls-2" d="M1010.46,1255.32c-39.4,0-78.81-8.69-108.9-26.07-30.84-17.8-47.78-41.96-47.7-67.98v-55.07c.02-4.34,3.52-7.83,7.84-7.83h.02c4.32,0,7.83,3.52,7.83,7.84v.26c.06,20.1,14.2,39.31,39.86,54.14,55.81,32.23,146.32,32.28,201.76.02,25.21-14.66,39.14-33.69,39.2-53.57.02-4.34,3.52-7.83,7.84-7.83h.02c4.32,0,7.83,3.52,7.83,7.84v55.07c-.08,25.72-16.77,49.54-47.01,67.13-29.87,17.37-69.21,26.06-108.58,26.06ZM869.55,1147.81v13.47c-.06,20.21,14.09,39.51,39.86,54.4,55.81,32.21,146.32,32.26,201.76.02,25.21-14.66,39.14-33.69,39.2-53.57v-13.82c-7.75,9.56-18.28,18.31-31.33,25.89-59.77,34.76-157.34,34.74-217.48-.02-13.37-7.72-24.13-16.62-32.02-26.36Z"/>
      <path class="cls-2" d="M1010.4,1200.23c-39.37,0-78.77-8.69-108.82-26.07-30.7-17.75-47.63-41.8-47.67-67.72-.05-25.74,16.61-49.62,46.86-67.25,11.69-6.89,25.18-12.53,40.07-16.77,4.18-1.15,8.5,1.26,9.7,5.41,1.18,4.17-1.24,8.5-5.41,9.7-13.6,3.86-25.86,8.98-36.43,15.2-25.26,14.72-39.14,33.79-39.11,53.71.03,20.08,14.19,39.32,39.83,54.17,55.79,32.23,146.25,32.26,201.7,0,25.35-14.74,39.29-33.84,39.26-53.78-.05-20.05-14.2-39.25-39.87-54.04-11.7-6.83-25.03-12.21-39.61-16.01-4.2-1.09-6.71-5.36-5.61-9.56,1.09-4.18,5.36-6.77,9.56-5.61,15.96,4.15,30.61,10.08,43.54,17.6,30.68,17.69,47.63,41.71,47.69,67.6.05,25.77-16.67,49.69-47.07,67.37-29.89,17.37-69.22,26.07-108.59,26.07Z"/>
    </g>
    <path class="cls-2" d="M1007.87,1129.86c-17.94,0-35.92-4.06-49.98-12.18-14.86-8.5-23.05-20.45-23.05-33.61l1.09-151.59c.03-4.3,3.54-7.78,7.84-7.78h.06c4.32.03,7.81,3.57,7.78,7.9l-1.09,151.53c0,7.25,5.39,14.35,15.18,19.96,23.36,13.47,61.06,13.47,84.08.03,9.62-5.65,14.92-12.65,14.92-19.73l1.1-151.44c.03-4.3,3.54-7.78,7.84-7.78h.06c4.32.03,7.81,3.57,7.78,7.9l-1.1,151.38c0,12.81-8.06,24.62-22.69,33.2-13.92,8.13-31.86,12.21-49.83,12.21Z"/>
    <path class="cls-2" d="M1009.86,947.93c-168.26,0-305.16-137.02-305.16-305.47s136.9-305.67,305.16-305.67,305.36,137.12,305.36,305.67-136.98,305.47-305.36,305.47ZM1009.86,352.48c-159.62,0-289.48,130.09-289.48,289.98s129.86,289.78,289.48,289.78,289.67-129.99,289.67-289.78-129.95-289.98-289.67-289.98Z"/>
  </g>
  <path class="cls-3" d="M885.22,1512.04c-23.59,0-47.21-5.33-65.69-16.01l-397.33-229.79c-19.1-11.12-29.6-26.29-29.61-42.71,0-16.33,10.4-31.39,29.27-42.39l466.97-271.84c3.71-2.22,8.53-.93,10.72,2.82,2.19,3.75.92,8.55-2.82,10.72l-466.97,271.84c-13.86,8.09-21.49,18.32-21.49,28.84.02,10.6,7.75,20.96,21.8,29.15l397.3,229.78c31.97,18.46,83.76,18.47,115.43.02l647.69-377.1c13.82-8,21.4-18.17,21.4-28.68s-7.77-20.99-21.84-29.14l-356.86-206.43c-3.75-2.16-5.04-6.97-2.86-10.71,2.18-3.75,7.02-5.04,10.71-2.86l356.86,206.43c19.15,11.06,29.69,26.23,29.69,42.71s-10.37,31.34-29.21,42.23l-647.65,377.08c-18.31,10.68-41.88,16.02-65.49,16.02Z"/>
  <path class="cls-3" d="M887.47,1603.12c-2.05,0-4.03-.81-5.5-2.25-1.5-1.49-2.34-3.49-2.34-5.61l.14-91.45c0-4.27,3.45-7.77,7.72-7.83,21.2-.34,40.85-5.16,55.38-13.6l647.64-376.9c13.56-7.95,21.35-18.38,21.38-28.62v-.08c0-4.32,3.52-7.83,7.84-7.83s7.84,3.51,7.84,7.84v.09l-.14,91.28c-.17,16.36-10.59,31.33-29.32,42.22l-647.64,376.91c-16.76,9.8-39.09,15.41-62.88,15.81h-.12ZM895.43,1511.37l-.11,75.72c18.05-1.29,34.6-5.93,47.23-13.33l647.67-376.93c13.77-8,21.42-18.2,21.52-28.74l.09-58.88c-3.83,3.54-8.32,6.82-13.42,9.82t-.02.02l-647.65,376.91c-14.98,8.7-34.39,14.08-55.32,15.41ZM1594.45,1112.26h.15-.15Z"/>
</svg>