<?xml version="1.0" encoding="UTF-8"?>
<svg id="Layer_1" data-name="Layer 1" xmlns="http://www.w3.org/2000/svg" viewBox="0 0 2000 2000">
  <defs>
    <style>
      .cls-1 {
        fill: #16bbb2;
      }

      .cls-2 {
        fill: #0b3a56;
      }
    </style>
  </defs>
  <path class="cls-1" d="M1629.44,578.01c8.19-6.99,9.17-19.31,2.18-27.51-6.99-8.19-19.3-9.18-27.51-2.18l-42.12,35.94c-8.19,6.99-9.17,19.31-2.18,27.51,3.86,4.52,9.34,6.85,14.86,6.85,4.48,0,8.98-1.53,12.65-4.67l42.12-35.94Z"/>
  <path class="cls-1" d="M1544.36,981.45v24.01c0,10.78,8.73,19.51,19.51,19.51s19.51-8.74,19.51-19.51v-24.01c0-10.78-8.73-19.51-19.51-19.51s-19.51,8.74-19.51,19.51Z"/>
  <path class="cls-1" d="M557.84,1384.49c-20.32,20.32-20.32,53.39,0,73.71,20.37,20.37,53.34,20.38,73.72,0,20.32-20.32,20.32-53.39,0-73.71-20.37-20.37-53.35-20.37-73.72,0h0ZM603.96,1430.61c-5.1,5.1-13.38,5.14-18.52,0-5.11-5.11-5.11-13.42,0-18.52,5.1-5.1,13.38-5.14,18.52,0,5.11,5.1,5.11,13.42,0,18.52Z"/>
  <path class="cls-1" d="M784.49,1305.27c20.37-20.37,20.38-53.34,0-73.71-20.37-20.37-53.34-20.37-73.71,0-20.37,20.37-20.37,53.34,0,73.71,20.37,20.37,53.34,20.37,73.71,0h0ZM738.37,1259.15c5.13-5.13,13.41-5.11,18.52,0h0c5.12,5.12,5.13,13.4,0,18.53-5.12,5.12-13.4,5.12-18.52,0-5.11-5.11-5.13-13.39,0-18.52Z"/>
  <path class="cls-1" d="M648.99,1318.9c-7.62,7.62-7.62,19.98,0,27.59l20.55,20.56c3.81,3.81,8.8,5.72,13.8,5.72s9.99-1.9,13.8-5.71c7.62-7.62,7.62-19.98,0-27.59l-20.55-20.56c-7.63-7.62-19.98-7.62-27.6,0h0Z"/>
  <path class="cls-1" d="M1061.68,682.08h90.85c10.78,0,19.51-8.74,19.51-19.51s-8.73-19.51-19.51-19.51h-90.85c-10.78,0-19.51,8.74-19.51,19.51s8.73,19.51,19.51,19.51h0Z"/>
  <path class="cls-2" d="M1736.66,1671.78h-324.35v-78.1c0-20.22-16.46-36.68-36.68-36.68h-37.15v-84.36c0-16.77-13.65-30.41-30.42-30.41h-24.49l-90.6-700.03h34.16c24.59,0,44.6-20.01,44.6-44.6v-75.68l208.44,22.38v578.59c0,6.97,3.72,13.42,9.76,16.9,5.95,3.43,13.4,3.53,19.52-.02,57.71-33.4,104.09-86.06,137.88-156.54,4.66-9.72.56-21.37-9.16-26.03-9.71-4.66-21.37-.56-26.03,9.16-24.27,50.62-55.45,90.81-92.95,119.91v-626.68l125.71-107.25c38.44,222.71,36.63,405.37-5.41,543.08-3.15,10.31,2.66,21.21,12.96,24.36,10.3,3.14,21.21-2.66,24.36-12.96,44.55-145.95,46.09-338.54,4.56-572.42-2.04-11.46-10.11-21.03-21.08-24.96-10.96-3.93-23.27-1.68-32.13,5.87l-133.99,114.31-568.26-110.81c-10.59-2.06-20.82,4.84-22.89,15.42-2.06,10.58,4.84,20.82,15.42,22.89l561.72,109.54v38.39c-31.33-3.37-889.45-95.51-918.39-98.62l4.64-8.44c32.52-59.16,98.9-90.23,165.16-77.31l108.86,21.23c10.6,2.07,20.82-4.84,22.89-15.42,2.06-10.58-4.84-20.82-15.42-22.89l-108.86-21.23c-82.98-16.18-166.1,22.72-206.83,96.81l-18.75,34.11c-3.15,5.72-3.22,12.63-.2,18.42,3.02,5.79,8.73,9.68,15.22,10.38l62.47,6.71v36.48c0,23.87,19.42,43.29,43.29,43.29h20.65v578.16l-80.49,80.48c-7.62,7.62-7.62,19.98,0,27.6,7.62,7.61,19.97,7.62,27.6,0l102.87-102.87c27.42-27.42,71.81-27.42,99.24,0,27.36,27.36,27.36,71.88,0,99.24l-162.82,162.82c-27.36,27.36-71.88,27.37-99.24,0-27.36-27.36-27.36-71.88,0-99.24l4.79-4.79c7.62-7.62,7.62-19.98,0-27.6-7.62-7.62-19.98-7.62-27.6,0l-4.79,4.79c-42.58,42.58-42.58,111.85,0,154.43,3.79,3.79,7.79,7.22,11.96,10.33l-52,159.85h-30.74c-10.78,0-19.51,8.73-19.51,19.51s8.73,19.51,19.51,19.51h1292.99c10.78,0,19.51-8.73,19.51-19.51s-8.74-19.51-19.51-19.51ZM1299.44,1557h-384.68v-75.75h384.68v75.75ZM1229.36,1327.53l-199.97-77.58,179.91-77.44,20.06,155.03ZM1201.68,1113.64l-154.83-74.74,135.49-74.74,19.35,149.48ZM1154.52,749.21l19.16,148.07-108.44-70.32,89.28-77.75ZM1101.81,743.36l-46.63,40.6,5.26-40.6h41.37ZM1045.28,860.53l112.22,72.77-131,72.26,18.77-145.03ZM1018.36,1068.49l157.39,75.97-177.09,76.23,19.7-152.2ZM991.37,1277.06l211.91,82.21-152.32,82.72c-.14.07-.25.16-.39.24h-80.58l21.38-165.17ZM1132.29,1442.22l104.57-56.79,7.35,56.79h-111.92ZM1232.69,697.6c0,3.08-2.5,5.58-5.58,5.58h-240.04c-3.08,0-5.58-2.5-5.58-5.58v-106.85l251.19,26.97v79.87h0ZM629.97,585.29v-32.29l88.84,9.54v22.75c0,2.35-1.91,4.26-4.26,4.26h-80.31c-2.35,0-4.26-1.91-4.26-4.26ZM831.69,1338.78c42.57-42.58,42.57-111.85,0-154.43-37.97-37.97-96.01-41.65-137.79-13.68v-542.1h20.65c23.87,0,43.29-19.42,43.29-43.29v-18.56l184.66,19.83v111.04c0,24.59,20.01,44.6,44.6,44.6h34.16l-90.6,700.03h-24.49c-16.77,0-30.41,13.64-30.41,30.41v84.36h-37.16c-20.22,0-36.68,16.45-36.68,36.68v78.1h-69.04l-57.48-176.69,156.3-156.31ZM515.44,1671.78l46.32-142.41c9.76,2.76,19.82,4.16,29.89,4.16,17.58,0,35.17-4.22,51.09-12.64l49.08,150.88h-176.39ZM840.92,1671.78v-75.76h532.36v75.76h-532.36Z"/>
</svg>