<?xml version="1.0" encoding="UTF-8"?>
<svg id="Layer_1" data-name="Layer 1" xmlns="http://www.w3.org/2000/svg" viewBox="0 0 2000 2000">
  <defs>
    <style>
      .cls-1 {
        fill: #16bbb2;
      }

      .cls-2 {
        fill: #0b3a56;
      }
    </style>
  </defs>
  <path class="cls-2" d="M1283.75,1552.23c-17.86-238.3-196.2-431.4-423.47-475.93,114.08-41.14,195.9-150.48,195.9-278.54,0-163.19-132.78-295.97-295.97-295.97s-295.94,132.78-295.94,295.97c0,128.06,81.81,237.4,195.9,278.54-227.27,44.53-405.61,237.63-423.47,475.93-.13,1.56-.17,3.09-.17,4.65,0,15.44,5.81,30.41,16.3,41.7,11.55,12.45,27.96,19.59,45.02,19.59h924.73c17.07,0,33.47-7.14,45.02-19.59,11.52-12.45,17.43-29.32,16.14-46.35ZM517.4,797.77c0-133.91,108.94-242.85,242.81-242.85s242.85,108.94,242.85,242.85-108.94,242.81-242.85,242.81-242.81-108.94-242.81-242.81ZM1228.67,1562.46c-1.1,1.16-3.05,2.59-6.08,2.59H297.86c-3.05,0-4.98-1.43-6.08-2.59-1.1-1.2-2.36-3.22-2.13-6.24,18.36-244.77,225.05-436.48,470.55-436.48s452.22,191.71,470.58,436.48c.2,3.02-1.03,5.05-2.13,6.24Z"/>
  <path class="cls-2" d="M1699.62,944.52l-44.06-76.33c26.99-28.19,38.28-69.19,27.82-108.21-7.87-29.38-26.7-53.92-53.02-69.09-25.63-14.81-55.38-18.99-84.07-11.92l-44.06-76.33c-19.72-34.2-63.62-45.95-97.82-26.23-26.93,15.57-39.88,46.09-34.53,75.04l-160.1,175.04-94.13,54.35c-15.21,8.8-26.1,22.98-30.65,40.01-2.39,8.9-2.86,18-1.53,26.86-20.39,14.54-35,35.56-41.6,60.2-7.5,28.02-3.72,57.24,10.72,82.24,20.05,34.73,56.58,54.19,94.1,54.19,15.07,0,30.28-3.19,44.66-9.76,7.01,5.61,15.14,9.76,24.07,12.19,5.68,1.53,11.45,2.26,17.2,2.26,7.07,0,14.11-1.16,20.85-3.42l71.52,123.88c6.08,10.53,15.9,18.03,27.66,21.18,3.92,1.06,7.9,1.59,11.85,1.59,7.9,0,15.67-2.09,22.68-6.11l34.1-19.72c21.75-12.55,29.22-40.44,16.67-62.16l-69.49-120.39,222.69-49.14c8,6.81,17.46,11.89,27.92,14.71,6.21,1.66,12.48,2.49,18.76,2.49,12.38,0,24.6-3.25,35.59-9.6,34.2-19.76,45.95-63.62,26.2-97.82ZM1603.8,736.87c14.04,8.1,24.07,21.18,28.29,36.86,4.12,15.34,1.86,31.24-5.31,44.59l-51.7-89.55c9.99.23,19.82,2.99,28.72,8.1ZM1098.61,1063.59c-7.34-12.72-9.26-27.62-5.45-41.94,2.49-9.3,7.24-17.56,13.71-24.24l53.19,92.1c-23.37,5.91-48.81-4.05-61.46-25.93ZM1238.83,1094.2c-3.95,2.26-7.74,1.76-9.66,1.23-1.93-.5-5.48-1.96-7.74-5.91l-82.87-143.5-1-1.76c-2.29-3.95-1.76-7.74-1.26-9.66.53-1.89,1.96-5.45,5.91-7.74l74.67-43.13,96.62,167.34-74.67,43.13ZM1388.14,1224.22l-20.95,12.09-67.07-116.18,20.95-12.09,67.07,116.18ZM1363.07,1030.65l-103.73-179.63,135.43-148.08,164.22,284.48-195.93,43.23ZM1646.86,996.35c-4.25,2.42-9.23,3.05-14.01,1.79-4.81-1.29-8.8-4.35-11.26-8.57l-197.39-341.89c-2.42-4.25-3.09-9.23-1.79-14.01,1.29-4.81,4.32-8.8,8.57-11.26,2.89-1.66,6.08-2.46,9.2-2.46,6.41,0,12.65,3.29,16.07,9.23l197.39,341.89c5.01,8.67,1.89,20.25-6.77,25.27Z"/>
  <path class="cls-1" d="M1922.14,771.53c-3.18,11.87-13.91,19.7-25.64,19.7-2.28,0-4.59-.3-6.89-.91-14.17-3.8-22.58-18.36-18.78-32.53,24.52-91.51-29.98-185.9-121.49-210.42-14.17-3.8-22.58-18.36-18.78-32.53,3.8-14.17,18.36-22.57,32.53-18.78,119.8,32.1,191.15,155.68,159.05,275.48Z"/>
  <path class="cls-1" d="M1760.38,778.54c-3.18,11.87-13.91,19.7-25.64,19.7-2.28,0-4.59-.3-6.89-.91-14.17-3.8-22.58-18.36-18.78-32.53,9.42-35.16-11.52-71.43-46.68-80.85-14.17-3.8-22.58-18.36-18.78-32.53,3.8-14.17,18.37-22.57,32.53-18.78,63.45,17,101.24,82.46,84.24,145.91h0Z"/>
  <path class="cls-1" d="M1824.08,644.49c22.98,39.79,29.08,86.15,17.19,130.54-3.18,11.87-13.91,19.7-25.64,19.7-2.28,0-4.59-.3-6.89-.91-14.17-3.8-22.58-18.36-18.78-32.53,8.22-30.68,4-62.73-11.88-90.23-15.88-27.51-41.52-47.18-72.2-55.4-14.17-3.8-22.58-18.36-18.78-32.53,3.8-14.17,18.36-22.57,32.53-18.78,44.39,11.89,81.49,40.36,104.46,80.15h0Z"/>
</svg>