<?xml version="1.0" encoding="UTF-8"?>
<svg id="Layer_1" data-name="Layer 1" xmlns="http://www.w3.org/2000/svg" viewBox="0 0 2000 2000">
  <defs>
    <style>
      .cls-1 {
        fill: #16bbb2;
      }

      .cls-2 {
        fill: #0b3a56;
      }
    </style>
  </defs>
  <path class="cls-2" d="M1304.89,1475.64v-342.05c0-11.79-9.59-21.38-21.38-21.38h-676.83c-11.79,0-21.38,9.59-21.38,21.38v342.05c0,11.79,9.59,21.38,21.38,21.38h34.35c8.61,0,15.6,6.98,15.6,15.6s-6.98,15.6-15.6,15.6h-34.35c-28.99,0-52.57-23.58-52.57-52.57v-342.05c0-28.99,23.58-52.57,52.57-52.57h676.83c28.99,0,52.57,23.58,52.57,52.57v342.05c0,28.99-23.58,52.57-52.57,52.57h-34.35c-8.61,0-15.6-6.98-15.6-15.6s6.98-15.6,15.6-15.6h34.35c11.79,0,21.38-9.59,21.38-21.38h0ZM1198.96,1499.44v179.37c0,8.61-6.98,15.6-15.6,15.6s-15.6-6.98-15.6-15.6v-179.37c0-28.48-20.4-52.53-48.5-57.17l-133.25-22.01,20.82,208.15c.39,3.95-.73,7.89-3.14,11.04l-46.22,60.32c-2.95,3.85-7.53,6.11-12.38,6.11s-9.43-2.26-12.38-6.11l-46.22-60.32c-2.41-3.15-3.53-7.09-3.14-11.04l20.82-208.15-133.25,22.01c-28.1,4.64-48.5,28.68-48.5,57.17v179.37c0,8.61-6.98,15.6-15.6,15.6s-15.6-6.98-15.6-15.6v-179.37c0-43.82,31.38-80.8,74.61-87.94l128.82-21.27c-39.89-26.85-61.9-80.9-60.3-130.54,2.21-68.22,45.61-112.29,110.57-112.29s108.37,44.08,110.57,112.29c1.61,49.62-20.39,103.64-60.23,130.5l129.07,21.32c43.23,7.14,74.61,44.12,74.61,87.94h0ZM944.94,1375.97c49.65-3.98,81.11-62.55,79.4-115.27-.62-19.26-8.19-82.11-79.4-82.11s-78.78,62.85-79.4,82.11c-1.71,52.72,29.75,111.29,79.4,115.27h0ZM954.14,1415.01l-9.05-1.49-9.05,1.49-21.04,210.37,30.09,39.26,30.09-39.26-21.04-210.37ZM792.04,1555.81c-8.61,0-15.6,6.98-15.6,15.6v107.41c0,8.61,6.98,15.6,15.6,15.6s15.6-6.98,15.6-15.6v-107.41c0-8.61-6.98-15.6-15.6-15.6ZM1098.14,1555.81c-8.61,0-15.6,6.98-15.6,15.6v107.41c0,8.61,6.98,15.6,15.6,15.6s15.6-6.98,15.6-15.6v-107.41c0-8.61-6.98-15.6-15.6-15.6ZM1506.52,1640.59v38.22c0,8.61-6.98,15.6-15.6,15.6h-241.76c-8.61,0-15.6-6.98-15.6-15.6s6.98-15.6,15.6-15.6h226.17v-22.63c0-12.48-10.15-22.63-22.63-22.63h-203.54c-8.61,0-15.6-6.98-15.6-15.6s6.98-15.6,15.6-15.6h167.03v-540.37c-4.67,1.48-9.47,2.73-14.4,3.68-8.27,1.59-16.74,2.4-25.19,2.4-43.36,0-83.23-20.97-107.88-55.18-24.65,34.21-64.52,55.18-107.88,55.18s-83.23-20.97-107.88-55.18c-24.65,34.21-64.52,55.18-107.88,55.18s-83.23-20.97-107.88-55.18c-24.65,34.21-64.52,55.18-107.88,55.18s-83.23-20.97-107.88-55.18c-24.65,34.21-64.52,55.18-107.88,55.18-8.44,0-16.92-.81-25.19-2.4-4.94-.95-9.73-2.2-14.4-3.68v540.37h167.03c8.61,0,15.6,6.98,15.6,15.6s-6.98,15.6-15.6,15.6h-203.54c-12.48,0-22.63,10.15-22.63,22.63v22.63h226.17c8.61,0,15.6,6.98,15.6,15.6s-6.98,15.6-15.6,15.6h-241.76c-8.61,0-15.6-6.98-15.6-15.6v-38.22c0-29.67,24.14-53.82,53.82-53.82h5.32v-555.42c-32.4-21.84-52.69-58.56-52.69-100.3v-48.34c0-2.74.72-5.43,2.09-7.8l139.34-241.34c15.22-26.37,41.42-41.49,71.86-41.49h683.38c30.45,0,56.64,15.13,71.86,41.49l139.34,241.34c1.37,2.37,2.09,5.06,2.09,7.8v48.34c0,41.74-20.3,78.45-52.69,100.3v555.42h5.32c29.67,0,53.82,24.14,53.82,53.82h0ZM1286.78,623.28h-94.84l87.74,243.84h177.78l-125.83-217.94c-9.64-16.7-25.57-25.9-44.85-25.9h0ZM823.44,867.12l30.26-243.84h-122.3l-87.74,243.84h179.79ZM854.86,867.12h180.46l-30.26-243.84h-119.94l-30.26,243.84ZM1246.54,867.12l-87.74-243.84h-122.3l30.26,243.84h179.79ZM432.72,867.12h177.78l87.74-243.84h-94.84c-19.28,0-35.21,9.2-44.85,25.9,0,0-125.83,217.94-125.83,217.94ZM605.86,962.48v-64.17h-184.56v32.74c0,43.77,30.02,80.12,73,88.41,6.33,1.22,12.82,1.84,19.29,1.84,39.71,0,75.6-22.99,92.28-58.82h0ZM821.62,962.48v-64.17h-184.57v64.17c16.68,35.83,52.57,58.82,92.28,58.82s75.6-22.99,92.28-58.82ZM1037.37,962.48v-64.17h-184.56v64.17c16.68,35.83,52.57,58.82,92.28,58.82s75.6-22.99,92.28-58.82ZM1253.13,962.48v-64.17h-184.57v64.17c16.68,35.83,52.57,58.82,92.28,58.82s75.6-22.99,92.28-58.82ZM1468.88,931.05v-32.74h-184.56v64.17c16.68,35.83,52.57,58.82,92.28,58.82,6.47,0,12.96-.62,19.28-1.84,42.98-8.28,73-44.64,73-88.41h0Z"/>
  <path class="cls-1" d="M1199.42,1499.24v179.37c0,8.61-6.98,15.6-15.6,15.6s-15.6-6.98-15.6-15.6v-179.37c0-28.48-20.4-52.53-48.5-57.17l-133.25-22.01,20.82,208.15c.39,3.95-.73,7.89-3.14,11.04l-46.22,60.32c-2.95,3.85-7.53,6.11-12.38,6.11s-9.43-2.26-12.38-6.11l-46.22-60.32c-2.41-3.15-3.53-7.09-3.14-11.04l20.82-208.15-133.25,22.01c-28.1,4.64-48.5,28.68-48.5,57.17v179.37c0,8.61-6.98,15.6-15.6,15.6s-15.6-6.98-15.6-15.6v-179.37c0-43.82,31.38-80.8,74.61-87.94l128.82-21.27c-39.89-26.85-61.9-80.9-60.3-130.54,2.21-68.22,45.61-112.29,110.57-112.29s108.37,44.08,110.57,112.29c1.61,49.62-20.39,103.64-60.23,130.5l129.07,21.32c43.23,7.14,74.61,44.12,74.61,87.94h0Z"/>
</svg>