<?xml version="1.0" encoding="UTF-8"?>
<svg id="Layer_1" data-name="Layer 1" xmlns="http://www.w3.org/2000/svg" viewBox="0 0 2000 2000">
  <defs>
    <style>
      .cls-1 {
        fill: #16bbb2;
      }

      .cls-2 {
        fill: #0b3a56;
      }
    </style>
  </defs>
  <path class="cls-2" d="M1541.6,1360.36v-222.7h-40.49v222.7h-121.47v-80.98h-40.49v80.98h-121.47v-708.59h283.43v445.4h40.49v-465.64c0-11.18-9.06-20.25-20.25-20.25h-20.25v-60.74c0-11.18-9.06-20.25-20.25-20.25h-101.23v-80.98h-40.49v80.98h-101.23c-11.18,0-20.25,9.06-20.25,20.25v60.74h-20.25c-11.18,0-20.25,9.06-20.25,20.25v121.47h-101.23c-5.37,0-10.52,2.13-14.32,5.93l-161.96,161.96c-3.8,3.8-5.93,8.95-5.93,14.32v117.94l-108.3-92.82c-7.58-6.5-18.77-6.5-26.35,0l-141.72,121.47c-4.49,3.85-7.07,9.46-7.07,15.37v85.71l-70.56-42.34c-6.41-3.85-14.42-3.85-20.83,0l-101.23,60.74c-6.1,3.66-9.83,10.25-9.83,17.36v141.72h-40.49v40.49h106.86c190.15,276.42,568.37,346.35,844.79,156.2,61.18-42.08,114.12-95.03,156.2-156.2h106.86v-40.49h-40.49ZM1258.17,570.8h202.45v40.49h-202.45v-40.49ZM1198.14,1400.85c-17.78,35.39-38.46,69.25-61.84,101.23h-323.13c-23.38-31.97-44.06-65.83-61.84-101.23h446.81ZM934.24,943.6l150.1-150.1h92.84v566.87h-101.23v-80.98h-40.49v80.98h-101.23v-416.77ZM650.81,1106.49l121.47-104.12,121.47,104.12v253.88h-101.23v-80.98h-40.49v80.98h-101.23v-253.88ZM448.36,1230.11l80.98-48.59,80.98,48.59v130.25h-60.74v-80.98h-40.49v80.98h-60.74v-130.25ZM524.25,1400.85h182.06c16.52,35.16,35.71,69,57.4,101.23h-139.81c-37.32-29.44-70.8-63.45-99.65-101.23ZM792.99,1542.57c18.46,23.82,38.4,46.45,59.7,67.77-60.05-13.18-117.54-36.07-170.21-67.77h110.51ZM924.72,1621.36c-28.7-23.96-55.31-50.32-79.55-78.79h259.12c-24.24,28.47-50.85,54.83-79.55,78.79-16.54,1.45-33.21,2.18-50.01,2.19-16.79,0-33.46-.73-50.01-2.19h0ZM1156.47,1542.57h110.51c-52.67,31.7-110.17,54.59-170.21,67.77,21.3-21.32,41.24-43.95,59.7-67.77h0ZM1325.57,1502.08h-139.81c21.69-32.23,40.88-66.07,57.4-101.23h182.06c-28.85,37.78-62.33,71.79-99.65,101.23Z"/>
  <path class="cls-1" d="M691.3,1137.67h40.49v101.23h-40.49v-101.23Z"/>
  <path class="cls-1" d="M812.77,1137.67h40.49v101.23h-40.49v-101.23Z"/>
  <path class="cls-1" d="M974.73,1137.67h40.49v101.23h-40.49v-101.23Z"/>
  <path class="cls-1" d="M1096.21,1137.67h40.49v101.23h-40.49v-101.23Z"/>
  <path class="cls-1" d="M974.73,995.95h40.49v101.23h-40.49v-101.23Z"/>
  <path class="cls-1" d="M1096.21,995.95h40.49v101.23h-40.49v-101.23Z"/>
  <path class="cls-1" d="M1258.17,995.95h40.49v101.23h-40.49v-101.23Z"/>
  <path class="cls-1" d="M1339.15,995.95h40.49v101.23h-40.49v-101.23Z"/>
  <path class="cls-1" d="M1258.17,854.23h40.49v101.23h-40.49v-101.23Z"/>
  <path class="cls-1" d="M1339.15,854.23h40.49v101.23h-40.49v-101.23Z"/>
  <path class="cls-1" d="M1258.17,712.51h40.49v101.23h-40.49v-101.23Z"/>
  <path class="cls-1" d="M1339.15,712.51h40.49v101.23h-40.49v-101.23Z"/>
  <path class="cls-1" d="M1420.13,995.95h40.49v101.23h-40.49v-101.23Z"/>
  <path class="cls-1" d="M1258.17,1137.67h40.49v101.23h-40.49v-101.23Z"/>
  <path class="cls-1" d="M1339.15,1137.67h40.49v101.23h-40.49v-101.23Z"/>
  <path class="cls-1" d="M1420.13,1137.67h40.49v101.23h-40.49v-101.23Z"/>
  <path class="cls-1" d="M1420.13,854.23h40.49v101.23h-40.49v-101.23Z"/>
  <path class="cls-1" d="M1420.13,712.51h40.49v101.23h-40.49v-101.23Z"/>
  <path class="cls-1" d="M1096.21,854.23h40.49v101.23h-40.49v-101.23Z"/>
  <path class="cls-1" d="M379.55,1095.5c7.39,3.21,15.99,1.73,21.88-3.77l290.63-271.25,107.75,89.79c8.28,6.9,20.52,6.1,27.84-1.82l231.22-250.49,46.35,30.9c9.3,6.2,21.87,3.69,28.08-5.61,1.84-2.76,2.97-5.92,3.3-9.21l20.25-202.45c1.11-11.13-7-21.05-18.13-22.16-2.63-.26-5.3,0-7.83.75l-202.45,60.74c-10.71,3.21-16.79,14.5-13.57,25.21,1.35,4.51,4.24,8.41,8.16,11.03l41.26,27.51-153.51,170.57-106.5-88.75c-7.84-6.53-19.31-6.21-26.77.75l-108.46,101.23,27.63,29.6,95.4-89.04,107.75,89.79c8.36,6.96,20.73,6.08,28.01-2.01l182.21-202.45c7.48-8.31,6.81-21.11-1.51-28.59-.73-.65-1.5-1.25-2.31-1.8l-24.93-16.62,132.26-39.68-13.89,138.84-32.71-21.81c-8.28-5.52-19.35-4.2-26.11,3.11l-229.89,249.05-106.69-88.91c-7.84-6.53-19.31-6.21-26.77.75l-269.62,251.65v-66.08l155.53-145.16-27.63-29.6-161.96,151.17c-4.1,3.83-6.43,9.19-6.43,14.8v121.47c0,8.06,4.78,15.35,12.18,18.57Z"/>
</svg>