<?xml version="1.0" encoding="UTF-8"?>
<svg id="Layer_1" data-name="Layer 1" xmlns="http://www.w3.org/2000/svg" viewBox="0 0 2000 2000">
  <defs>
    <style>
      .cls-1 {
        fill: #16bbb2;
      }

      .cls-2 {
        fill: #0b3a56;
      }
    </style>
  </defs>
  <path class="cls-2" d="M1619.72,1119.4c8.22-22.79,2.55-48.29-14.56-65.44l-98.9-98.9c-16.24-16.24-42.57-16.24-58.81,0l-90.88,90.88c-14.01,14.02-16.19,35.97-5.2,52.47l39.91,59.87-152.31,152.35-59.87-39.91c-16.49-10.99-38.45-8.81-52.47,5.2l-90.88,90.88c-16.24,16.24-16.24,42.57,0,58.81l98.9,98.9c17.13,17.16,42.65,22.83,65.44,14.56,195.18-70.74,348.9-224.47,419.62-419.66ZM1185.88,1499.97c-7.59,2.77-16.1.88-21.81-4.82l-98.9-98.9,90.88-90.88,74.05,49.37c8.24,5.49,19.22,4.4,26.22-2.6l176.47-176.47c7-7.01,8.09-17.98,2.6-26.22l-49.37-74.05,90.88-90.88,98.9,98.9c5.71,5.72,7.59,14.22,4.82,21.81-66.53,183.6-211.13,328.19-394.74,394.7v.04Z"/>
  <path class="cls-1" d="M1148.57,1185.49c-2.54-56.9,41.53-105.08,98.43-107.62,3.06-.14,6.13-.14,9.19,0l2.08-41.59c-79.87-3.63-147.55,58.17-151.18,138.03-.2,4.38-.2,8.77,0,13.15l41.49-1.98Z"/>
  <path class="cls-1" d="M1261.31,953.1c-125.94-5.23-232.28,92.62-237.51,218.56-.26,6.31-.26,12.63,0,18.94l41.59-1.75c-4.27-102.99,75.76-189.94,178.75-194.21,5.14-.21,10.28-.21,15.42,0l1.75-41.55Z"/>
  <path class="cls-1" d="M666.88,918.91c183.76,0,332.73-148.97,332.73-332.73s-148.97-332.73-332.73-332.73-332.73,148.97-332.73,332.73c.22,183.67,149.06,332.51,332.73,332.73ZM504.68,827.81c-26.42-17.92-49.74-40.02-69.04-65.44,22.62-7.81,45.79-13.95,69.31-18.36,7.54,26.67,17.88,52.46,30.86,76.94-10.9,1.98-21.23,4.39-31.13,6.86ZM525.47,606.98h120.62v80.87c-36.8.66-73.53,3.54-109.99,8.61-6.01-29.48-9.56-59.41-10.63-89.48ZM646.09,729.44v80.38c-22.58.56-44.63,2.08-65.71,4.47-14.62-24.15-26.03-50.1-33.94-77.19,33.05-4.43,66.32-6.98,99.65-7.65ZM666.88,877.32c-35.09-.06-69.87-6.51-102.65-19.05,68.1-9.57,137.2-9.57,205.3,0-32.77,12.54-67.56,18.99-102.65,19.05ZM753.39,814.29c-21.09-2.37-43.13-3.91-65.71-4.47v-80.38c33.34.67,66.61,3.22,99.65,7.65-7.91,27.1-19.32,53.05-33.94,77.19ZM687.68,687.85v-80.87h120.62c-1.04,30.05-4.57,59.96-10.54,89.42-36.49-5.05-73.24-7.91-110.07-8.55ZM829.09,827.81c-9.92-2.56-20.26-4.89-31.19-6.92,12.98-24.49,23.32-50.28,30.86-76.94,23.52,4.41,46.69,10.55,69.31,18.36-19.28,25.44-42.58,47.57-68.98,65.51ZM921.53,726.97c-26.83-10.18-54.49-18.03-82.66-23.46,6.34-31.82,10.02-64.11,11.02-96.53h107.16c-2.93,42.11-15.05,83.07-35.5,119.99h-.02ZM921.53,445.37c20.44,36.93,32.54,77.9,35.44,120.01h-107.08c-.98-32.45-4.69-64.76-11.08-96.6,28.18-5.46,55.86-13.3,82.73-23.42h0ZM828.88,344.43c26.5,17.93,49.88,40.07,69.23,65.55-22.67,7.79-45.87,13.95-69.42,18.43-7.56-26.69-17.88-52.52-30.8-77.07,10.79-2.04,21.07-4.3,30.99-6.9ZM808.29,565.39h-120.62v-80.87c36.83-.66,73.59-3.56,110.07-8.69,6.03,29.51,9.56,59.47,10.54,89.57ZM687.68,442.92v-80.71c22.5-.56,44.42-2.08,65.57-4.33,14.72,24.22,26.23,50.24,34.25,77.42-33.1,4.44-66.43,6.98-99.82,7.61ZM666.88,295.04c35.01.07,69.72,6.49,102.44,18.97-2.68.42-5.18.96-7.92,1.33-62.73,7.85-126.2,7.85-188.93,0-2.77-.4-5.28-.94-8.01-1.35,32.71-12.47,67.41-18.89,102.42-18.94ZM580.52,357.89c21.13,2.35,43.05,3.76,65.57,4.33v80.71c-33.39-.63-66.72-3.17-99.82-7.61,8.01-27.18,19.53-53.21,34.25-77.42ZM646.09,484.51v80.87h-120.62c.95-30.09,4.43-60.06,10.4-89.57,36.53,5.13,73.34,8.04,110.22,8.69ZM504.88,344.43c9.92,2.52,20.19,4.87,31.01,6.9-12.93,24.55-23.26,50.38-30.82,77.07-23.54-4.47-46.74-10.63-69.4-18.43,19.33-25.48,42.71-47.63,69.21-65.55ZM412.24,445.37c26.88,10.12,54.57,17.95,82.77,23.42-6.41,31.83-10.13,64.14-11.13,96.6h-107.08c2.9-42.11,14.99-83.08,35.44-120.01ZM376.8,606.98h107.08c.96,32.42,4.61,64.71,10.92,96.53-28.15,5.43-55.78,13.28-82.58,23.46-20.42-36.93-32.51-77.89-35.42-119.99Z"/>
  <path class="cls-2" d="M666.88,1459.6h291.14v-41.59h-270.34v-365.71l26.89,26.89,29.41-29.41-62.39-62.39c-8.12-8.12-21.28-8.12-29.41,0l-62.39,62.39,29.41,29.41,26.89-26.89v386.51c0,11.49,9.31,20.8,20.8,20.8Z"/>
  <path class="cls-2" d="M1430.23,779.44l-29.41,29.41,62.39,62.39c8.12,8.12,21.28,8.12,29.41,0l62.39-62.39-29.41-29.41-26.89,26.89v-220.14c0-11.49-9.31-20.8-20.8-20.8h-415.91v41.59h395.12v199.35l-26.89-26.89Z"/>
</svg>