<?xml version="1.0" encoding="UTF-8"?>
<svg id="Layer_1" data-name="Layer 1" xmlns="http://www.w3.org/2000/svg" viewBox="0 0 2000 2000">
  <defs>
    <style>
      .cls-1 {
        fill: #16bbb2;
      }

      .cls-2 {
        fill: #0b3a56;
      }
    </style>
  </defs>
  <path class="cls-1" d="M636.06,1446.29c-.42-.38-.86-.74-1.31-1.09-13.54-11.24-27.09-23.3-39.55-35.76-7.92-7.83-20.66-7.83-28.58,0-7.92,7.93-7.92,20.78,0,28.71,13.54,13.54,27.09,26.14,42.26,38.33,8.34,7.51,21.19,6.83,28.69-1.51,7.5-8.34,6.83-21.18-1.51-28.69Z"/>
  <path class="cls-1" d="M423.43,843.95c-10.59-3.7-22.18,1.89-25.88,12.48-.55,1.57-.9,3.21-1.05,4.86-4.06,18.56-7.18,37.38-9.48,56.21-1.45,11.01,6.21,21.15,17.2,22.75h2.57c10.28,0,18.95-7.67,20.18-17.88,2.17-17.61,5.15-35.35,8.94-52.55,3.7-10.59-1.89-22.18-12.48-25.88Z"/>
  <path class="cls-1" d="M535.06,1338.61c-10.43-14.36-20.32-29.26-29.39-44.43-5.74-9.64-18.2-12.81-27.85-7.08-.02.01-.04.02-.05.03-9.64,5.74-12.81,18.2-7.08,27.85.01.02.02.04.03.05,9.75,16.25,20.32,32.24,31.56,47.54,6.93,8.82,19.7,10.35,28.53,3.42,8.39-6.6,10.25-18.57,4.25-27.4Z"/>
  <path class="cls-1" d="M464.22,1210.48c-6.5-16.39-12.46-33.32-17.47-50.39-3.13-10.77-14.4-16.98-25.17-13.85-.19.05-.38.11-.56.17-10.66,3.26-16.71,14.5-13.54,25.19,5.42,18.15,11.65,36.3,18.69,54.18,4.23,10.51,16.17,15.6,26.68,11.38,10.51-4.23,15.6-16.17,11.38-26.68Z"/>
  <path class="cls-1" d="M476.34,704.65c-10.02-5.05-22.24-1.02-27.29,9.01-8.53,16.93-16.39,34.4-23.3,52.15-4.07,10.4,1.01,22.13,11.38,26.28,10.43,4.13,22.24-.98,26.37-11.41.01-.03.03-.07.04-.1,6.5-16.52,13.54-32.91,21.81-48.63,5.05-10.02,1.02-22.24-9.01-27.29Z"/>
  <path class="cls-1" d="M427.66,1069.13s0-.04,0-.05c-2.17-17.61-3.66-35.49-4.33-53.09-.41-11.22-9.84-19.98-21.06-19.57-11.22.41-19.98,9.84-19.57,21.06,0,18.96,2.17,38.06,4.61,56.89,1.39,9.85,9.7,17.24,19.64,17.47h3.12c11.13-1.41,19.02-11.57,17.61-22.7Z"/>
  <path class="cls-1" d="M966.66,391.36c-1.08-11.22-11.06-19.44-22.28-18.35-18.83,1.9-37.79,4.61-56.48,8.26-11.22,1.05-19.47,10.99-18.42,22.21,1.05,11.22,10.99,19.47,22.21,18.42l-.14-.54h3.93c17.47-3.39,35.22-5.96,52.82-7.72,11.22-1.08,19.44-11.06,18.35-22.28Z"/>
  <path class="cls-1" d="M564.59,581.73c-8.45-7.48-21.37-6.69-28.85,1.76-12.46,14.22-24.38,29.26-35.49,44.7-6.58,9.09-4.55,21.79,4.53,28.37,3.45,2.5,7.6,3.85,11.85,3.86v.27c6.54.02,12.69-3.1,16.52-8.4,10.43-14.36,21.54-28.44,33.18-41.72,7.48-8.45,6.69-21.37-1.76-28.85Z"/>
  <path class="cls-1" d="M1100.55,376.4c-18.69-2.84-37.79-4.88-56.75-5.96-11.22-.67-20.86,7.88-21.54,19.1-.67,11.22,7.88,20.86,19.1,21.54,17.88,1.35,35.62,3.25,53.09,5.96h3.12c11.22.82,20.98-7.61,21.81-18.83.82-11.22-7.61-20.98-18.83-21.81Z"/>
  <path class="cls-1" d="M679.97,484.93c-6.36-8.63-18.32-10.84-27.34-5.05-15.58,10.7-30.88,22.35-45.51,34.4-8.64,7.18-9.82,20.01-2.64,28.65,7.18,8.64,20.01,9.82,28.65,2.64,13.54-11.38,27.9-22.21,42.53-32.24,9.04-6.65,10.97-19.37,4.32-28.41Z"/>
  <g>
    <path class="cls-1" d="M728.23,467.42c-.09,0-.17-.01-.25-.01-.09,0-.18.01-.26.01h.52Z"/>
    <path class="cls-1" d="M819.56,420.65c-3.79-10.63-18.04-16.89-31.83-13.97-1.21.26-2.4.58-3.55.97-22.62,6.39-45.24,13.31-66.99,21.7-12.97,4.65-18.59,16.53-12.56,26.53,4.23,7.01,13.34,11.49,23.35,11.53,3.74-.06,7.42-.73,10.79-1.98,20.37-7.45,41.44-14.24,62.67-20.23,13.8-2.92,21.91-13.91,18.12-24.54Z"/>
  </g>
  <path class="cls-1" d="M1065.4,1596.16c-.71-11.22-10.38-19.74-21.6-19.03-17.74,1.35-35.62,1.76-53.37,1.22-11.22-.3-20.56,8.55-20.86,19.78-.3,11.22,8.55,20.56,19.78,20.86h17.2c13.54,0,27.09,0,39.82-1.22,11.22-.71,19.74-10.38,19.03-21.6Z"/>
  <path class="cls-1" d="M1597.16,1125.48c-10.88-2.77-21.95,3.81-24.72,14.7-4.33,17.2-9.62,34.27-15.58,50.93-3.53,10.46,1.94,21.83,12.33,25.6,10.56,3.79,22.2-1.7,25.99-12.26,0-.02.01-.04.02-.06,6.37-17.88,11.92-36.16,16.66-54.18,2.77-10.88-3.81-21.95-14.7-24.72Z"/>
  <path class="cls-1" d="M1623.1,892.85c-3.12-18.69-7.04-37.52-11.78-55.8-3.24-10.74-14.58-16.82-25.33-13.57-10.18,3.07-16.27,13.48-13.95,23.87,4.47,17.07,8.13,34.67,11.11,52.15,1.75,9.57,10.04,16.56,19.78,16.66h3.39c11.07-1.8,18.59-12.22,16.8-23.3Z"/>
  <path class="cls-2" d="M1709.45,659.66c-.95-2.08-2.26-3.97-3.86-5.59l-35.89-37.38c-5.14-5.13-12.69-7.01-19.64-4.88l-64.74,19.64-75.85-80.46,170.26-94.81c9.92-4.57,14.26-16.31,9.69-26.23-.95-2.08-2.26-3.97-3.86-5.59l-47.81-47.81c-5.21-5.01-12.74-6.78-19.64-4.61l-215.77,65.29-72.6-77.07c-18.5-21.39-48.62-28.54-74.77-17.74h-1.22c-19.71,8.11-35.37,23.77-43.48,43.48-2.05,5.15-3.5,10.51-4.33,15.98l-8.26-2.84c-10.7-3.44-22.16,2.44-25.6,13.14-3.44,10.7,2.44,22.16,13.14,25.6,10.43,3.39,20.86,7.18,31.29,11.11,3.14,4.91,6.82,9.45,10.97,13.54l76.53,72.6-21.94,72.46c-214.61-153.08-512.68-103.21-665.77,111.4-153.08,214.61-103.21,512.68,111.4,665.76,214.61,153.08,512.68,103.21,665.77-111.4,122.08-171.14,117.82-402-10.49-568.52l34.67-62.58,80.46,75.85-19.37,64.07c-2.33,7.04-.5,14.79,4.74,20.05,0,0,39.69,39.28,40.63,40.63,9.38,5.44,21.4,2.24,26.84-7.14.08-.15.17-.29.25-.44l52.96-97.11,95.63-52.15c9.92-4.57,14.26-16.32,9.69-26.24ZM698.14,686.43c81.66-81.62,192.41-127.42,307.87-127.32,9.03,0,18.06.27,27.09.81,76.8,70.84,54.18,135.45,2.71,193.69-30.37,32.21-62.96,62.26-97.52,89.94-49.98,42.53-96.57,82.22-114.18,121.9-20.86,47.14-5.55,89.8,78.69,127.05,42.12,18.69,65.01,33.18,73.95,44.16.13.16.26.27.39.37-.28.08-.56.18-.93.31-20.4,7.77-42.11,11.49-63.93,10.97-102.13,4.33-174.86-60.95-231.34-111.47-40.63-36.16-74.36-66.23-109.44-66.5,5.8-107,50.9-208.1,126.64-283.9ZM1442.95,994.98h.14c-.06,188.78-121.42,356.14-300.83,414.87-5.04-31.75.83-64.26,16.66-92.24,21.46-34.47,49-64.75,81.27-89.39,125.02-104.29,132.06-162.54,137.48-207.37,3.39-28.31,5.96-49.44,61.9-80.18,2.25,18.02,3.38,36.16,3.39,54.31ZM1417.76,848.43c6.05,17.05,11.03,34.47,14.9,52.15-85.2,43.34-88.99,74.22-94.14,116.35-4.61,37.92-10.56,87.5-123.53,181.77-36.18,27.68-66.94,61.8-90.75,100.64-20.75,36.69-27.95,79.5-20.32,120.95-234.96,53.71-468.98-93.22-522.69-328.18-6.14-26.87-9.73-54.27-10.7-81.82,21.54,0,49.44,25.6,83.71,56.07,62.03,55.4,141.41,126.1,259.65,121.9,27.86.48,55.52-4.77,81.27-15.44,10.85-4.8,19.07-14.1,22.48-25.46,2.89-12.67-.78-25.95-9.75-35.35-12.73-15.58-40.63-34-88.58-55.4-57.29-25.33-69.75-49.98-58.51-75.17,13.54-31.69,57.16-67.72,103.48-108.36,36.1-29.17,70.09-60.85,101.72-94.81,56.62-64.47,85.74-134.77,28.17-211.7,63.97,13.08,124.17,40.44,176.08,80.05l-31.15,102.8c-2.3,7.04-.47,14.78,4.74,20.05,0,0,50.52,50.12,52.15,51.06,9.38,5.44,21.4,2.24,26.84-7.14.08-.15.17-.29.25-.44l39.41-71.24c23.27,32.85,41.86,68.77,55.26,106.73ZM1599.4,697.13l-17.47,8.67c-3.91,1.94-7.06,5.13-8.94,9.07l-8.67,17.61-33.73,60.95-9.89-10.84,19.64-64.88c2.29-7.6-.22-15.83-6.37-20.86l-106.87-100.64c-7.74-7.6-20.17-7.49-27.77.25-.18.19-.36.37-.53.57-1.35,1.49-97.52,174.73-97.52,174.73l-20.99-20.99,65.56-216.04c2.35-7.64-.17-15.95-6.37-20.99l-85.06-80.05c-9.41-7.97-12.54-21.15-7.72-32.51,4.32-9.84,12.21-17.68,22.08-21.94h.68c11.22-4.33,23.95-1.07,31.69,8.13l81.27,85.87c5.1,5.48,12.88,7.58,20.05,5.42l216.71-65.42,20.99,20.99-172.02,94.54c-9.52,5.19-13.03,17.13-7.83,26.65.08.15.16.29.25.44.81,1.49,104.43,111.74,104.43,111.74,5.13,5.43,12.9,7.48,20.05,5.28l65.15-19.64,10.16,10.16-60.95,33.73Z"/>
  <path class="cls-1" d="M1547.07,1268.27c-.29-.17-.6-.34-.9-.5-9.71-5.08-21.69-1.54-27.09,7.99-8.53,15.58-17.88,30.88-27.9,45.51-6.47,9.2-4.26,21.91,4.94,28.38,9.2,6.47,21.91,4.26,28.38-4.94,10.56-15.71,20.59-32.1,29.8-48.63,5.69-9.68,2.45-22.13-7.23-27.81Z"/>
  <path class="cls-1" d="M1611.31,971.68c-11.22-.15-20.44,8.82-20.59,20.04,0,.27,0,.55,0,.82v2.3c0,17.74-.81,35.62-2.44,53.37-1.02,11.17,7.22,21.06,18.39,22.07.01,0,.02,0,.03,0h1.9c10.72.1,19.67-8.14,20.45-18.83,1.76-18.83,2.57-37.92,2.57-56.89v-2.71c-.07-11.17-9.15-20.18-20.32-20.18Z"/>
  <path class="cls-1" d="M897.92,1568.19c-17.61-2.98-35.08-6.77-52.01-11.92-10.59-3.72-22.18,1.84-25.91,12.43-3.72,10.59,1.84,22.18,12.43,25.91.78.27,1.57.5,2.37.68,18.15,5.15,36.84,9.62,55.53,13.54h3.79c11.22,1.05,21.17-7.2,22.21-18.42,1.05-11.22-7.2-21.17-18.42-22.22Z"/>
  <path class="cls-1" d="M1212.28,1562.02c-3.67-9.98-14.42-15.43-24.64-12.52v.54c-16.8,5.55-34.13,10.29-51.33,13.54-10.96,2.47-17.84,13.36-15.37,24.31,2.47,10.96,13.36,17.84,24.31,15.37,18.42-4.2,36.98-9.35,54.99-15.17,10.53-3.88,15.92-15.56,12.04-26.09Z"/>
  <path class="cls-1" d="M758.54,1523.9c-16.12-7.99-31.97-16.66-47.27-25.33-9.69-5.69-22.15-2.44-27.83,7.25-5.69,9.69-2.44,22.15,7.25,27.83,16.39,9.62,33.32,18.56,50.52,27.09,10.17,4.79,22.3.42,27.09-9.75,4.79-10.17.42-22.3-9.75-27.09Z"/>
  <path class="cls-1" d="M1460.75,1393.21c-8.14-7.43-20.73-7.02-28.36.94h.14c-12.19,13.54-25.06,25.46-38.2,37.25-8.38,7.48-9.11,20.34-1.63,28.71,7.48,8.38,20.34,9.11,28.71,1.63,13.54-12.6,27.9-26.01,40.63-39.82,7.57-8.29,6.98-21.14-1.3-28.7Z"/>
  <path class="cls-1" d="M1348.65,1494.55c-5.76-9.63-18.23-12.77-27.86-7.01-.33.19-.64.4-.95.61v-.54c-14.9,9.48-30.48,18.42-46.19,27.09-9.99,5.12-13.93,17.37-8.8,27.36,5.12,9.99,17.37,13.93,27.36,8.8,16.8-8.67,33.46-18.29,49.44-28.44,9.63-5.76,12.77-18.23,7.01-27.86Z"/>
</svg>