<svg width="12" height="11" viewBox="0 0 12 11" fill="none" xmlns="http://www.w3.org/2000/svg">
<path d="M7.195 10.83L12 6L7.195 1.17C7.1516 1.11301 7.09647 1.06601 7.03333 1.03219C6.9702 0.998361 6.90053 0.978495 6.82904 0.973934C6.75756 0.969373 6.68593 0.980225 6.61901 1.00575C6.55208 1.03128 6.49142 1.07089 6.44114 1.1219C6.39085 1.17291 6.35211 1.23413 6.32754 1.30141C6.30297 1.36869 6.29315 1.44047 6.29873 1.51188C6.30431 1.58329 6.32517 1.65267 6.35989 1.71532C6.39462 1.77797 6.4424 1.83242 6.5 1.875L10.095 5.5L0.53 5.5C0.397391 5.5 0.270215 5.55268 0.176447 5.64645C0.0826787 5.74021 0.0299997 5.86739 0.0299997 6C0.0299997 6.13261 0.0826787 6.25978 0.176447 6.35355C0.270215 6.44732 0.397391 6.5 0.53 6.5L10.095 6.5L6.5 10.125C6.40651 10.2192 6.35425 10.3466 6.35472 10.4793C6.35519 10.6119 6.40835 10.739 6.5025 10.8325C6.59665 10.926 6.72409 10.9782 6.85677 10.9778C6.98945 10.9773 7.11651 10.9242 7.21 10.83H7.195Z" fill="#0EBAB1"/>
</svg>
